<svg width="100" height="100" viewBox="0 0 100 100" fill="none" xmlns="http://www.w3.org/2000/svg">
<g clip-path="url(#clip0_311_2)">
<path d="M99.0062 29.9992C99.0062 29.9992 98.0313 23.1055 95.025 20.0805C91.2188 16.0992 86.9562 16.0742 85.0062 15.843C71.025 14.8242 50.025 14.8242 50.025 14.8242H49.9875C49.9875 14.8242 28.9937 14.8242 15.0062 15.843C13.05 16.0805 8.79375 16.0992 4.9875 20.0805C1.98125 23.1055 1.025 29.9992 1.025 29.9992C1.025 29.9992 0.03125 38.0867 0.03125 46.193V53.7742C0.03125 61.8617 1.025 69.968 1.025 69.968C1.025 69.968 2 76.8617 4.9875 79.893C8.79375 83.8742 13.7937 83.743 16.025 84.168C24.0312 84.9305 50.0312 85.1617 50.0312 85.1617C50.0312 85.1617 71.05 85.1242 85.0312 84.1242C86.9875 83.893 91.2438 83.868 95.05 79.8867C98.0563 76.8617 99.0313 69.9617 99.0313 69.9617C99.0313 69.9617 100.025 61.8742 100.025 53.768V46.1867C100.006 38.0992 99.0125 29.993 99.0125 29.993L99.0062 29.9992ZM39.6688 62.968V34.8617L66.6812 48.9617L39.6688 62.968Z" fill="white"/>
</g>
<defs>
<clipPath id="clip0_311_2">
<rect width="100" height="100" fill="white"/>
</clipPath>
</defs>
</svg>
